<?xml version="1.0" encoding="UTF-8" standalone="no"?>
        <svg 
    viewBox="1.95 -88.29999999999997 446.4 56.19999999999999"
    width="444.45"
    height="144.49999999999997"
   xmlns="http://www.w3.org/2000/svg"
   xmlns:svg="http://www.w3.org/2000/svg">
   <path d="M72-58.95L72-58.05Q70.65-59.25 69.38-61.13Q68.10-63 66.90-64.72Q65.70-66.45 64.27-67.72Q62.85-69 61.05-69.15L61.05-69.15Q60.30-69.15 59.77-69Q59.25-68.85 58.95-67.95L58.95-67.95Q59.40-65.40 59.40-62.77Q59.40-60.15 58.72-57.60Q58.05-55.05 56.63-52.80Q55.20-50.55 52.95-49.05L52.95-49.05L52.05-48.60L51.45-48.60L51.45-57L49.50-57L49.50-25.95L45-28.05Q44.85-27.90 44.55-27.75L44.55-27.75Q43.95-27.45 43.95-27L43.95-27Q43.80-26.55 42.98-24.97Q42.15-23.40 42-22.95L42-22.95L42-22.05Q43.05-21.30 45.23-20.02Q47.40-18.75 49.05-18L49.05-18L49.05-9.15Q47.40-9.15 45.67-7.88Q43.95-6.60 43.95-4.95L43.95-4.95Q43.95-3.15 45.60-1.80Q47.25-0.45 49.05-0.45L49.05-0.45L49.05 9Q49.05 11.40 45.82 12.67Q42.60 13.95 38.63 14.55Q34.65 15.15 31.05 15.22Q27.45 15.30 26.55 15.30L26.55 15.30L26.55-34.95L25.05-36Q24.60-36.30 22.27-34.13Q19.95-31.95 16.80-29.02Q13.65-26.10 10.42-23.40Q7.20-20.70 4.95-19.95L4.95-19.95L4.05-19.95L1.95-22.05L1.95-22.95Q5.70-28.80 9.67-35.85Q13.65-42.90 16.80-50.48Q19.95-58.05 21.97-65.70Q24-73.35 24-80.55L24-80.55Q24-80.70 24.07-81.30Q24.15-81.90 24.07-82.58Q24-83.25 23.77-83.85Q23.55-84.45 22.95-84.45L22.95-84.45L10.95-84.45Q9.30-88.80 4.65-88.80L4.65-88.80Q4.65-89.25 5.10-90.38Q5.55-91.50 6-91.50L6-91.50L25.95-91.50Q26.10-93.30 26.32-97.72Q26.55-102.15 26.70-107.17Q26.85-112.20 26.93-116.70Q27-121.20 27-123L27-123L27-128.25Q28.35-128.25 32.85-128.40Q37.35-128.55 42.30-128.25Q47.25-127.95 51.15-126.97Q55.05-126 55.05-123.90L55.05-123.90L55.05-123Q54.60-122.40 52.88-120.90Q51.15-119.40 50.55-118.95L50.55-118.95L50.55-104.40Q48.30-104.40 45.90-103.35Q43.50-102.30 41.48-100.58Q39.45-98.85 38.17-96.67Q36.90-94.50 36.90-92.25L36.90-92.25Q36.90-89.55 39.52-87.08Q42.15-84.60 46.05-82.13Q49.95-79.65 54.45-77.10Q58.95-74.55 62.85-71.77Q66.75-69 69.38-65.85Q72-62.70 72-58.95L72-58.95ZM102-72L102.45-72Q105.45-72 107.40-73.88Q109.35-75.75 110.92-78.08Q112.50-80.40 114.08-82.27Q115.65-84.15 118.05-84.15L118.05-84.15Q118.65-84.15 118.95-84L118.95-84Q118.05-83.70 117.97-82.95Q117.90-82.20 117.90-81.60L117.90-81.60Q117.90-79.05 119.02-76.80Q120.15-74.55 121.50-72.30Q122.85-70.05 123.97-67.88Q125.10-65.70 125.10-63.45L125.10-63.45Q125.10-63.15 124.95-63L124.95-63L121.05-66Q120.45-66.45 119.63-65.70Q118.80-64.95 117.97-63.82Q117.15-62.70 116.55-61.57Q115.95-60.45 115.95-60L115.95-60Q115.95-59.10 117.22-58.27Q118.50-57.45 120-56.48Q121.50-55.50 122.77-54.23Q124.05-52.95 124.05-51L124.05-51Q124.05-47.70 121.95-45.90Q119.85-44.10 117-43.05L117-43.05Q117.30-44.25 117.07-45.75Q116.85-47.25 116.25-48.60Q115.65-49.95 114.67-50.85Q113.70-51.75 112.50-51.75L112.50-51.75L112.50-32.55Q109.20-32.55 108.67-33.45Q108.15-34.35 108.15-35.77Q108.15-37.20 107.47-38.85Q106.80-40.50 103.05-42L103.05-42Q102.30-42.30 102-43.05L102-43.05Q102.90-45.60 104.17-48.98Q105.45-52.35 106.95-55.05L106.95-55.05Q106.35-56.70 104.10-56.92Q101.85-57.15 100.35-57.15L100.35-57.15Q99.60-57.15 98.63-53.92Q97.65-50.70 96.67-46.50Q95.70-42.30 95.02-38.17Q94.35-34.05 94.35-32.25L94.35-32.25Q94.50-32.25 95.10-32.10Q95.70-31.95 96-31.95L96-31.95Q96.30-32.10 97.95-33Q99.60-33.90 100.05-34.05L100.05-34.05Q101.55-34.20 102.30-32.85Q103.05-31.50 103.05-30.45L103.05-30.45Q103.05-28.80 102.08-27.07Q101.10-25.35 99.97-23.63Q98.85-21.90 97.88-20.10Q96.90-18.30 96.90-16.50L96.90-16.50Q96.90-16.20 97.05-16.05L97.05-16.05Q99.60-15.75 101.17-14.40Q102.75-13.05 104.17-11.55Q105.60-10.05 107.33-8.85Q109.05-7.65 112.05-7.65L112.05-7.65L112.05 7.95Q112.05 9 111 9L111 9Q110.70 9 109.95 8.63Q109.20 8.25 109.05 7.95L109.05 7.95Q106.05 10.50 104.02 12Q102 13.50 100.05 14.25Q98.10 15 95.70 15.15Q93.30 15.30 89.55 15.30L89.55 15.30L89.55-34.05Q89.55-34.20 88.95-34.95Q88.35-35.70 88.05-36L88.05-36Q87.90-36.15 87.45-36.15L87.45-36.15Q87.15-36.15 87-36L87-36Q84-33 80.63-29.55Q77.25-26.10 73.58-22.57Q69.90-19.05 66-15.75Q62.10-12.45 58.05-10.05L58.05-10.05Q56.70-9.30 56.25-9.07Q55.80-8.85 54.45-8.85L54.45-8.85Q51.90-8.85 51.90-10.95L51.90-10.95Q51.90-11.70 52.05-12L52.05-12Q57.45-18.60 63.15-27Q68.85-35.40 73.50-44.55Q78.15-53.70 81.08-63.22Q84-72.75 84-81.60L84-81.60Q84-82.05 83.92-83.25Q83.85-84.45 82.95-84.45L82.95-84.45L55.05-84.45Q55.95-85.65 57.67-86.17Q59.40-86.70 61.05-87.22Q62.70-87.75 63.90-88.65Q65.10-89.55 65.10-91.50L65.10-91.50Q65.10-93.75 63.60-94.72Q62.10-95.70 60.30-95.70L60.30-95.70Q60.30-94.65 60.45-93.60Q60.60-92.55 60.52-91.72Q60.45-90.90 59.77-90.38Q59.10-89.85 57.45-89.85L57.45-89.85Q55.80-89.85 54.60-91.13Q53.40-92.40 52.95-94.05L52.95-94.05L49.95-91.95L49.95-97.05Q51.45-97.05 52.35-97.80Q53.25-98.55 54-99.52Q54.75-100.50 55.50-101.25Q56.25-102 57.45-102L57.45-102Q59.70-102 61.57-100.27Q63.45-98.55 65.25-96.52Q67.05-94.50 68.92-92.77Q70.80-91.05 73.05-91.05L73.05-91.05L87-91.05L89.55-93L89.55-128.25Q90.15-128.25 92.25-128.17Q94.35-128.10 94.95-127.95L94.95-127.95Q96.15-127.95 99.15-127.72Q102.15-127.50 105.52-127.13Q108.90-126.75 111.83-126.45Q114.75-126.15 115.95-126L115.95-126Q116.40-125.85 117.15-125.10Q117.90-124.35 118.05-124.05L118.05-124.05Q118.65-121.20 116.70-119.55Q114.75-117.90 112.13-116.63Q109.50-115.35 107.25-114Q105-112.65 105-110.55L105-110.55Q105-109.50 105.90-108.90Q106.80-108.30 108-108.08Q109.20-107.85 110.40-107.77Q111.60-107.70 112.05-107.70L112.05-107.70L112.05-96Q111.90-96.30 111.08-96.67Q110.25-97.05 109.95-97.05L109.95-97.05Q107.10-96.45 105.30-94.27Q103.50-92.10 102-90L102-90Q102.60-88.05 104.33-86.25Q106.05-84.45 106.95-82.95L106.95-82.95Q107.10-82.95 107.10-82.50L107.10-82.50Q107.10-80.55 105.15-79.72Q103.20-78.90 102-78L102-78L100.95-76.95L100.95-76.05L102-72ZM101.10-110.40L101.10-110.40Q101.10-112.80 99.38-113.47Q97.65-114.15 95.85-114.15L95.85-114.15Q94.35-114.15 93.15-113.47Q91.95-112.80 91.95-111L91.95-111Q91.95-109.35 93.90-107.63Q95.85-105.90 97.50-105.90L97.50-105.90Q97.80-105.90 97.95-106.05L97.95-106.05Q98.40-106.35 99.52-107.92Q100.65-109.50 100.95-109.95L100.95-109.95Q101.10-110.10 101.10-110.40ZM127.95-103.05L128.55-103.05Q129.90-103.05 131.40-102.15Q132.90-101.25 134.32-99.97Q135.75-98.70 136.95-97.35Q138.15-96 139.05-94.95L139.05-94.95Q136.95-95.40 135.45-94.65Q133.95-93.90 132-93.90L132-93.90Q130.35-93.90 128.78-94.50Q127.20-95.10 125.40-95.10L125.40-95.10Q123.45-95.10 122.40-94.13Q121.35-93.15 120.22-91.88Q119.10-90.60 117.52-89.63Q115.95-88.65 112.95-88.65L112.95-88.65L112.95-90.60Q114-90.60 116.40-90.67Q118.80-90.75 120-91.95L120-91.95L127.05-102Q127.20-102.15 127.57-102.52Q127.95-102.90 127.95-103.05L127.95-103.05ZM139.95-93L139.95-93Q139.20-93 139.20-93.97Q139.20-94.95 139.95-94.95L139.95-94.95Q140.70-94.95 140.70-93.97Q140.70-93 139.95-93ZM94.05-91.05L94.05-91.95L91.95-91.95L91.95-91.05L94.05-91.05ZM133.05-85.95L132.45-85.95Q131.25-85.95 130.95-87.22Q130.65-88.50 130.65-89.25L130.65-89.25Q131.55-89.25 132.82-89.02Q134.10-88.80 134.10-87.45L134.10-87.45Q134.10-87.15 133.95-87L133.95-87Q133.80-86.40 133.05-85.95L133.05-85.95ZM127.05-84L122.70-84Q122.70-84.75 123.22-85.42Q123.75-86.10 124.50-86.10L124.50-86.10Q124.95-86.10 124.95-85.95L124.95-85.95Q125.25-85.80 126-85.05Q126.75-84.30 127.05-84L127.05-84ZM136.95-84L136.95-84Q136.65-83.70 135.82-83.63Q135-83.55 134.03-83.55Q133.05-83.55 132.22-83.63Q131.40-83.70 130.95-84L130.95-84Q130.65-84.30 131.70-84.38Q132.75-84.45 134.03-84.45Q135.30-84.45 136.28-84.30Q137.25-84.15 136.95-84ZM33.45-79.05L33-79.05Q33-76.80 32.48-75.08Q31.95-73.35 31.27-71.70Q30.60-70.05 30.07-68.33Q29.55-66.60 29.55-64.65L29.55-64.65Q31.65-64.65 32.77-66Q33.90-67.35 34.42-69.30Q34.95-71.25 35.02-73.35Q35.10-75.45 35.10-77.10L35.10-77.10Q35.10-79.05 33.45-79.05L33.45-79.05ZM96-64.05L96-64.95L94.95-64.05L96-64.05ZM149.10-39.45L149.10-39.45Q149.10-39.15 148.95-39L148.95-39Q145.80-41.25 141.75-42.82Q137.70-44.40 134.17-46.20Q130.65-48 128.25-50.70Q125.85-53.40 125.85-58.05L125.85-58.05L126-61.95Q128.55-59.70 131.70-56.92Q134.85-54.15 138-51.23Q141.15-48.30 144.07-45.45Q147-42.60 148.95-40.05L148.95-40.05Q149.10-39.90 149.10-39.45ZM47.25-50.55L47.25-50.55Q47.25-52.65 46.80-54.60Q46.35-56.55 43.65-56.55L43.65-56.55Q43.65-55.05 44.48-52.80Q45.30-50.55 47.25-50.55ZM72-52.95L72-52.50Q72-50.70 70.95-49.20Q69.90-47.70 68.33-46.50Q66.75-45.30 64.88-44.63Q63-43.95 61.50-43.95L61.50-43.95L61.05-43.95L58.95-45Q59.70-46.35 60.22-48.07Q60.75-49.80 61.42-51.38Q62.10-52.95 63.15-54Q64.20-55.05 66-55.05L66-55.05Q67.95-55.05 69.08-54.75Q70.20-54.45 72-52.95L72-52.95ZM26.10-42.15L26.10-42.15Q26.10-43.05 25.05-43.80Q24-44.55 22.57-45.07Q21.15-45.60 19.72-45.98Q18.30-46.35 17.40-46.35L17.40-46.35Q17.40-44.55 16.50-43.05Q15.60-41.55 14.55-40.13Q13.50-38.70 12.60-37.20Q11.70-35.70 11.70-33.75L11.70-33.75Q13.50-33.75 15.97-34.13Q18.45-34.50 20.70-35.48Q22.95-36.45 24.52-38.10Q26.10-39.75 26.10-42.15ZM133.95-37.95L133.95-31.05Q133.95-30.60 134.78-30.07Q135.60-29.55 136.72-29.10Q137.85-28.65 138.75-28.35Q139.65-28.05 139.95-28.05L139.95-28.05Q139.50-27.15 138.60-24.22Q137.70-21.30 136.57-18.15Q135.45-15 134.40-12.45Q133.35-9.90 132.45-9.90L132.45-9.90Q131.85-9.90 130.50-12Q129.15-14.10 127.80-16.65Q126.45-19.20 125.32-21.45Q124.20-23.70 124.05-24L124.05-24L120-34.05L119.85-35.10Q119.85-35.85 120-36L120-36L124.95-40.95Q125.10-41.10 125.85-41.10L125.85-41.10L127.05-40.95Q127.35-40.95 129-40.42Q130.65-39.90 130.95-40.05L130.95-40.05Q131.25-40.05 132-40.95Q132.75-41.85 133.05-42L133.05-42L133.95-42.15Q134.70-42.15 135.38-41.77Q136.05-41.40 136.05-40.50L136.05-40.50L136.05-40.05L133.95-37.95ZM43.05-39.60L43.05-39.60Q43.05-40.35 42.82-41.17Q42.60-42 41.55-42L41.55-42Q39.90-42 39.38-39.98Q38.85-37.95 38.85-36.90L38.85-36.90Q38.85-35.55 39.07-34.57Q39.30-33.60 40.95-33L40.95-33Q42.60-33.60 42.82-35.85Q43.05-38.10 43.05-39.60ZM112.05-26.40L112.05-15Q110.55-15 108.97-15.07Q107.40-15.15 106.05-15.60Q104.70-16.05 103.80-17.10Q102.90-18.15 102.90-20.10L102.90-20.10Q102.90-24.30 105.75-25.35Q108.60-26.40 112.05-26.40L112.05-26.40ZM237-94.95L259.05-94.95Q261.30-94.95 262.88-97.35Q264.45-99.75 265.88-102.52Q267.30-105.30 268.95-107.70Q270.60-110.10 273-110.10L273-110.10Q274.95-110.10 277.65-108.08Q280.35-106.05 283.05-103.42Q285.75-100.80 287.92-98.33Q290.10-95.85 291-94.95L291-94.95Q290.10-93.45 289.88-91.58Q289.65-89.70 289.65-88.05L289.65-88.05L274.95-88.05Q273.75-88.05 272.18-86.70Q270.60-85.35 269.25-83.63Q267.90-81.90 266.93-80.17Q265.95-78.45 265.95-77.55L265.95-77.55Q265.95-76.35 266.48-75.97Q267-75.60 267-74.55L267-74.55Q267-69.15 264.07-62.85Q261.15-56.55 257.02-50.40Q252.90-44.25 248.47-38.63Q244.05-33 241.05-28.95L241.05-28.95Q240.90-28.80 240.90-28.50L240.90-28.50Q240.90-28.05 241.05-28.05L241.05-28.05Q243.15-25.20 246.97-22.88Q250.80-20.55 255.07-18.68Q259.35-16.80 263.63-15.45Q267.90-14.10 271.05-13.05L271.05-13.05Q272.40-12.60 272.02-11.25Q271.65-9.90 271.65-9.30L271.65-9.30Q273.15-9.30 273.75-9.67Q274.35-10.05 274.35-12.15L274.35-12.15Q276-12.15 277.80-11.55Q279.60-10.95 280.95-10.05L280.95-10.05Q279.60-8.25 278.77-7.65Q277.95-7.05 277.50-6.75Q277.05-6.45 276.90-5.77Q276.75-5.10 276.75-3.15L276.75-3.15Q277.80-3.15 278.63-3.75Q279.45-4.35 280.13-5.17Q280.80-6 281.55-6.60Q282.30-7.20 283.50-7.20L283.50-7.20Q284.55-7.20 285.30-6.90Q286.05-6.60 286.05-4.95L286.05-4.95Q286.05-3.30 284.02-2.25Q282-1.20 280.95-1.05L280.95-1.05L280.95 0L283.05 1.05Q282.15 1.80 280.57 4.27Q279 6.75 277.27 9.38Q275.55 12 273.98 14.03Q272.40 16.05 271.50 16.05L271.50 16.05Q267.45 16.05 262.88 13.95Q258.30 11.85 253.50 8.78Q248.70 5.70 244.05 2.02Q239.40-1.65 235.35-4.72Q231.30-7.80 228.07-9.90Q224.85-12 223.05-12L223.05-12L222-12Q214.80-7.35 206.40-2.48Q198 2.40 189 6.45Q180 10.50 170.78 13.05Q161.55 15.60 152.70 15.60L152.70 15.60Q152.70 13.65 154.05 12.30Q155.40 10.95 157.35 9.97Q159.30 9 161.40 8.40Q163.50 7.80 165 7.05L165 7.05Q165.90 6.60 168.15 5.47Q170.40 4.35 172.95 3.07Q175.50 1.80 177.82 0.60Q180.15-0.60 181.05-1.05L181.05-1.05L181.95-1.05Q182.10-0.90 182.47-0.45Q182.85 0 183 0L183 0L183.45 0Q186.75 0 190.05-2.25Q193.35-4.50 195-7.05L195-7.05Q194.25-10.20 196.65-12.45Q199.05-14.70 202.28-16.72Q205.50-18.75 208.28-21Q211.05-23.25 211.05-26.55L211.05-26.55Q211.05-29.55 209.25-33.15Q207.45-36.75 205.05-40.57Q202.65-44.40 200.32-48.15Q198-51.90 196.95-55.05L196.95-55.05L193.05-67.05Q192.75-67.95 191.93-71.25Q191.10-74.55 190.20-78.15Q189.30-81.75 188.40-84.60Q187.50-87.45 187.05-87.45L187.05-87.45L157.05-87.45Q156.15-87.45 155.63-88.42Q155.10-89.40 154.80-90.52Q154.50-91.65 154.43-92.70Q154.35-93.75 154.35-94.05L154.35-94.05L203.70-94.05Q203.70-92.55 204.38-91.05Q205.05-89.55 205.95-88.50L205.95-88.50L196.05-88.50Q195.60-88.50 195.30-87.97Q195-87.45 194.93-86.77Q194.85-86.10 194.85-85.50Q194.85-84.90 194.85-84.90L194.85-84.90Q194.85-82.80 195.90-80.02Q196.95-77.25 198.30-74.40Q199.65-71.55 201-69Q202.35-66.45 202.95-64.95L202.95-64.95Q202.05-64.65 201.45-64.20L201.45-64.20Q200.85-63.90 200.40-63.60Q199.95-63.30 199.95-63L199.95-63Q199.95-61.65 201.07-59.32Q202.20-57 204-57L204-57L205.05-57Q205.20-57 206.03-57.52Q206.85-58.05 207-58.05L207-58.05Q207.15-57.90 207.90-57.15Q208.65-56.40 208.95-55.95L208.95-55.95Q209.40-55.50 210.38-54.23Q211.35-52.95 212.47-51.52Q213.60-50.10 214.57-48.82Q215.55-47.55 216-46.95L216-46.95Q214.80-46.80 214.88-45.30Q214.95-43.80 214.95-43.35L214.95-43.35Q214.95-41.85 215.47-40.35Q216-38.85 217.95-38.85L217.95-38.85Q218.70-38.85 219-39L219-39L217.95-43.05L217.95-44.25Q218.40-44.25 219-43.95L219-43.95Q219.30-43.95 220.50-43.05Q221.70-42.15 222-42L222-42L222.45-42Q224.10-42 226.20-44.70Q228.30-47.40 230.32-51.60Q232.35-55.80 234.30-60.90Q236.25-66 237.75-70.65Q239.25-75.30 240.15-79.05Q241.05-82.80 241.05-84.45L241.05-84.45Q241.05-87.60 239.77-88.20Q238.50-88.80 235.05-88.95L235.05-88.95L235.05-91.05L232.95-91.05L232.95-88.95L211.95-88.95L214.05-93.45L210-93.45L211.50-94.95L211.50-126L214.05-127.95L240-126Q242.25-125.70 242.25-123.90L242.25-123.90Q242.25-123.30 241.95-123L241.95-123L237-118.05L237-94.95ZM214.05-115.95L214.05-111.75Q216.15-111.75 216.15-114L216.15-114Q216.15-114.75 215.77-115.42Q215.40-116.10 214.50-116.10L214.50-116.10Q214.20-116.10 214.05-115.95L214.05-115.95ZM187.95-90L187.95-92.25Q185.70-92.25 185.70-90L185.70-90L187.95-90ZM253.95-91.95L252-91.95L252-90.75Q253.20-90.75 253.95-91.95L253.95-91.95ZM247.50-43.95L247.95-43.95Q248.40-45.75 248.85-47.55Q249.30-49.35 250.05-51L250.05-51Q249.90-51.15 249.45-51.15L249.45-51.15Q247.95-51.15 246.97-49.20Q246-47.25 246-45.90L246-45.90Q246-43.95 247.50-43.95L247.50-43.95ZM233.85-37.05L235.05-37.05Q235.35-37.80 235.50-38.55L235.50-38.55Q235.65-39.15 235.72-39.82Q235.80-40.50 235.95-40.95L235.95-40.95L236.10-42Q236.10-42.60 235.95-43.05L235.95-43.05Q235.20-41.70 234.52-40.13Q233.85-38.55 233.85-37.05L233.85-37.05ZM238.95-24L238.95-25.20Q237.75-25.20 237-24L237-24L238.95-24ZM211.05-21L208.95-21L208.95-18.60Q209.85-18.60 210.38-19.50Q210.90-20.40 211.05-21L211.05-21ZM256.95-13.95L256.95-13.95Q257.70-13.95 257.70-15Q257.70-16.05 256.95-16.05L256.95-16.05Q256.20-16.05 256.20-15Q256.20-13.95 256.95-13.95ZM212.25-15.15L212.25-15.15Q209.10-15.15 207.38-13.42Q205.65-11.70 205.65-8.85L205.65-8.85Q208.65-8.85 210.45-10.57Q212.25-12.30 212.25-15.15ZM286.05-9L286.05-9Q285.90-8.55 285.52-8.55Q285.15-8.55 285-9L285-9Q284.85-9.45 285.45-9.45Q286.05-9.45 286.05-9ZM291-7.95L291-7.95Q290.70-7.50 289.95-7.50Q289.20-7.50 289.05-7.95L289.05-7.95Q288.75-8.40 290.02-8.40Q291.30-8.40 291-7.95ZM192-7.95L192-7.50Q192-6.75 191.25-6.15Q190.50-5.55 189.60-5.10Q188.70-4.65 187.88-4.35Q187.05-4.05 187.05-4.05L187.05-4.05Q186.90-3.90 186.45-3.90L186.45-3.90Q186.15-3.90 186-4.05L186-4.05L192-7.95ZM292.95-6L292.95-6Q292.20-6 292.20-6.97Q292.20-7.95 292.95-7.95L292.95-7.95Q293.70-7.95 293.70-6.97Q293.70-6 292.95-6ZM295.05-6L295.05-4.95Q295.05-3.90 294.15-3.15Q293.25-2.40 292.05-1.95Q290.85-1.50 289.57-1.27Q288.30-1.05 287.55-1.05L287.55-1.05L286.95-1.05Q287.85-1.50 289.27-1.88Q290.70-2.25 291.98-2.70Q293.25-3.15 294.15-3.90Q295.05-4.65 295.05-6L295.05-6ZM255 3.60L255 3Q255 2.85 255.45 2.02Q255.90 1.20 256.05 1.05L256.05 1.05L256.20-0.30Q254.25-0.30 253.05 0.90Q251.85 2.10 251.85 4.05L251.85 4.05Q251.85 6.60 254.40 7.80Q256.95 9 258.90 9L258.90 9Q260.40 9 262.35 8.55Q264.30 8.10 266.02 7.20Q267.75 6.30 268.95 5.02Q270.15 3.75 270.15 1.95L270.15 1.95L270 1.05Q269.85 0.75 269.32 0Q268.80-0.75 268.13-1.57Q267.45-2.40 266.85-3.07Q266.25-3.75 265.95-4.05L265.95-4.05L265.50-4.05Q263.40-4.05 262.95-2.48Q262.50-0.90 262.27 1.05Q262.05 3 261.45 4.58Q260.85 6.15 258.45 6.15L258.45 6.15Q257.40 6.15 256.20 5.55Q255 4.95 255 3.60L255 3.60ZM285 1.05L285 1.05Q284.25 1.05 284.25 0Q284.25-1.05 285-1.05L285-1.05Q285.75-1.05 285.75 0Q285.75 1.05 285 1.05ZM173.25 6.60L173.25 6.60Q171.75 6.60 170.25 7.57Q168.75 8.55 168.75 10.35L168.75 10.35Q171.30 10.35 172.28 9.75Q173.25 9.15 173.25 6.60ZM378.60-88.05L378-88.05Q377.70-87.90 376.95-87.52Q376.20-87.15 376.05-87L376.05-87Q373.20-93.15 369.30-97.80Q365.40-102.45 361.13-106.58Q356.85-110.70 352.43-114.83Q348-118.95 343.95-124.05L343.95-124.05L343.95-124.95Q344.55-125.85 345-126L345-126L350.55-126Q356.70-126 365.02-124.88Q373.35-123.75 380.93-120.75Q388.50-117.75 393.75-112.50Q399-107.25 399-99L399-99Q399-98.55 398.93-97.35Q398.85-96.15 398.55-94.95Q398.25-93.75 397.73-92.85Q397.20-91.95 396.45-91.95L396.45-91.95Q396-91.95 395.77-92.33Q395.55-92.70 395.40-93.08Q395.25-93.45 394.95-93.83Q394.65-94.20 393.90-94.20L393.90-94.20Q392.40-94.20 391.73-92.77Q391.05-91.35 390.38-89.55Q389.70-87.75 388.57-86.33Q387.45-84.90 385.05-84.90L385.05-84.90Q382.95-84.90 381.15-86.47Q379.35-88.05 378.60-88.05L378.60-88.05ZM352.05-121.05L352.05-121.05Q352.05-121.50 351.45-121.50Q350.85-121.50 351-121.05L351-121.05Q351.15-120.60 351.52-120.60Q351.90-120.60 352.05-121.05ZM415.50-36L415.50-16.05Q418.65-14.10 420.90-11.85Q423.15-9.60 423.15-5.70L423.15-5.70Q423.15-4.50 422.85-2.70Q422.55-0.90 421.80 0.82Q421.05 2.55 419.85 3.75Q418.65 4.95 417 4.95L417 4.95Q415.80 4.95 415.50 3.60Q415.20 2.25 414.98 0.60Q414.75-1.05 414.30-2.40Q413.85-3.75 412.35-3.75L412.35-3.75Q412.35-0.75 412.73 1.57Q413.10 3.90 413.10 6.60L413.10 6.60Q413.10 7.95 410.32 8.70Q407.55 9.45 403.95 9.75Q400.35 10.05 397.13 10.05Q393.90 10.05 393 10.05L393 10.05L387 10.05Q386.55 9.75 384.98 9Q383.40 8.25 382.95 7.95L382.95 7.95L382.05 7.95Q381.75 8.25 381.38 9Q381 9.75 381 10.05L381 10.05L369 10.05Q364.20 10.05 359.25 9.75Q354.30 9.45 350.25 7.88Q346.20 6.30 343.57 2.85Q340.95-0.60 340.95-7.05L340.95-7.05L340.95-94.05Q340.95-95.10 342.23-95.10Q343.50-95.10 343.80-95.10L343.80-95.10L346.05-94.95Q347.10-94.95 350.10-94.72Q353.10-94.50 356.48-94.13Q359.85-93.75 362.85-93.45Q365.85-93.15 367.05-93L367.05-93Q367.35-93 368.55-92.63Q369.75-92.25 370.05-91.95L370.05-91.95L370.05-91.50Q370.05-89.70 368.32-88.20Q366.60-86.70 365.55-85.95L365.55-85.95L365.55-58.95Q365.55-57.90 364.35-57.90Q363.15-57.90 361.73-58.05Q360.30-58.20 359.10-58.05Q357.90-57.90 357.90-56.40L357.90-56.40Q357.90-56.10 358.05-55.95L358.05-55.95Q359.40-54.15 360-53.48Q360.60-52.80 361.13-52.42Q361.65-52.05 362.25-51.82Q362.85-51.60 364.05-51L364.05-51Q364.35-50.85 364.95-50.48Q365.55-50.10 365.55-49.95L365.55-49.95L365.55-16.05Q365.55-15.90 366.07-15.52Q366.60-15.15 367.05-15L367.05-15Q367.20-14.55 368.25-14.25L368.25-14.25Q368.70-14.10 369-13.95L369-13.95L394.95-13.95Q398.25-13.95 400.50-15.75Q402.75-17.55 404.25-20.25Q405.75-22.95 406.73-26.02Q407.70-29.10 408.68-31.80Q409.65-34.50 410.70-36.30Q411.75-38.10 413.55-38.10L413.55-38.10Q413.85-38.10 414-37.95L414-37.95Q414.30-37.80 414.90-36.98Q415.50-36.15 415.50-36L415.50-36ZM439.95-64.05L439.95-63Q436.95-66.75 433.13-69.30Q429.30-71.85 424.35-71.85L424.35-71.85Q424.35-70.80 425.55-69.90Q426.75-69 428.25-67.95Q429.75-66.90 431.17-65.70Q432.60-64.50 433.05-63L433.05-63Q433.50-60.30 434.48-58.13Q435.45-55.95 436.50-54.07Q437.55-52.20 438.30-50.40Q439.05-48.60 439.05-46.50L439.05-46.50Q439.05-43.05 436.95-41.25Q434.85-39.45 431.92-38.40Q429-37.35 425.70-36.60Q422.40-35.85 420-34.65L420-34.65Q419.55-43.80 418.50-52.13Q417.45-60.45 414-69L414-69Q413.40-70.35 412.27-72.08Q411.15-73.80 409.95-75.67Q408.75-77.55 407.85-79.27Q406.95-81 406.95-82.35L406.95-82.35Q406.95-83.55 407.25-84.30Q407.55-85.05 408.90-85.05L408.90-85.05Q411.45-85.05 414.52-83.77Q417.60-82.50 420.68-80.70Q423.75-78.90 426.45-76.80Q429.15-74.70 430.95-73.05L430.95-73.05Q432-72.15 433.57-70.58Q435.15-69 436.57-67.58Q438-66.15 438.98-65.10Q439.95-64.05 439.95-64.05L439.95-64.05ZM324-28.05L325.35-28.05Q325.35-26.40 324-25.43Q322.65-24.45 320.85-23.85Q319.05-23.25 317.18-23.10Q315.30-22.95 314.25-22.95L314.25-22.95Q308.70-22.95 305.77-26.02Q302.85-29.10 302.85-34.35L302.85-34.35Q302.85-38.25 304.57-41.40Q306.30-44.55 308.63-47.40Q310.95-50.25 313.57-53.02Q316.20-55.80 318-58.95L318-58.95Q321-64.35 321.82-70.72Q322.65-77.10 322.95-82.95L322.95-82.95Q323.85-83.25 324.45-83.25L324.45-83.25Q326.10-83.25 327.45-81.38Q328.80-79.50 329.93-76.58Q331.05-73.65 331.80-70.13Q332.55-66.60 333.07-63.22Q333.60-59.85 333.82-57.07Q334.05-54.30 334.05-52.95L334.05-52.95Q334.05-52.65 334.05-50.02Q334.05-47.40 333.75-44.25Q333.45-41.10 332.70-38.55Q331.95-36 330.60-36L330.60-36Q329.40-36 328.27-36.75Q327.15-37.50 326.18-38.55Q325.20-39.60 324.60-40.80Q324-42 324-43.05L324-43.05Q324-44.85 324.82-46.35Q325.65-47.85 325.65-49.80L325.65-49.80Q322.80-49.80 321.82-48.82Q320.85-47.85 320.85-44.85L320.85-44.85Q320.85-43.35 321.38-42.15Q321.90-40.95 322.50-39.90Q323.10-38.85 323.63-37.65Q324.15-36.45 324.15-34.95L324.15-34.95Q324.15-33.60 323.63-32.63Q323.10-31.65 322.43-30.82Q321.75-30 321.07-29.10Q320.40-28.20 319.95-27L319.95-27L321-27Q321.30-27 322.50-27.45Q323.70-27.90 324-28.05L324-28.05ZM327-76.05L327-76.05Q327.30-76.50 326.02-76.50Q324.75-76.50 325.05-76.05L325.05-76.05Q325.20-75.60 325.95-75.60Q326.70-75.60 327-76.05ZM358.95-73.95L358.95-73.05Q359.85-73.50 360.60-74.33Q361.35-75.15 361.35-76.20L361.35-76.20Q358.95-76.20 358.95-73.95L358.95-73.95ZM418.95-64.95L418.95-66L418.05-66L418.05-64.95L418.95-64.95ZM441-61.05L441-61.95Q441.60-61.80 442.05-61.05L442.05-61.05L442.05-60Q441.30-60.30 441-61.05L441-61.05ZM442.95-58.95L442.95-58.95Q443.40-58.95 443.40-58.50Q443.40-58.05 442.95-58.05L442.95-58.05Q442.50-57.90 442.50-58.50Q442.50-59.10 442.95-58.95ZM444-57L444-57Q444.45-56.85 444.45-56.48Q444.45-56.10 444-55.95L444-55.95Q443.55-55.95 443.55-56.55Q443.55-57.15 444-57ZM445.05-55.05L445.05-55.05Q445.50-54.90 445.50-54.52Q445.50-54.15 445.05-54L445.05-54Q444.60-53.85 444.60-54.45Q444.60-55.05 445.05-55.05ZM445.95-52.05L445.95-52.05Q446.40-51.90 446.40-51.52Q446.40-51.15 445.95-51L445.95-51Q445.50-50.85 445.50-51.45Q445.50-52.05 445.95-52.05ZM343.95-37.95L343.95-37.05L345-37.05L345-37.95L343.95-37.95ZM420-34.05L418.95-34.05Q419.25-34.20 419.48-34.35Q419.70-34.50 420-34.65L420-34.65L420-34.05ZM430.50-29.10L430.50-29.10Q432-29.10 433.50-28.80Q435-28.50 436.05-27L436.05-27Q435-26.10 434.10-26.02Q433.20-25.95 432-25.95L432-25.95Q430.65-25.95 428.70-26.25Q426.75-26.55 426-28.05L426-28.05Q426.90-28.95 428.10-29.02Q429.30-29.10 430.50-29.10ZM342.90-22.05L342.90-22.05Q342.90-20.85 343.13-19.35Q343.35-17.85 345-17.85L345-17.85Q346.50-17.85 347.32-19.20Q348.15-20.55 348.15-22.05L348.15-22.05Q348.15-23.55 346.65-24.45Q345.15-25.35 343.95-25.95L343.95-25.95Q343.05-25.05 342.98-24.07Q342.90-23.10 342.90-22.05ZM363-12L363-10.50Q363-7.95 363.52-5.47Q364.05-3 364.05-0.30L364.05-0.30Q364.05 0.60 363.23 1.88Q362.40 3.15 361.05 3L361.05 3Q360.75 3 360.07 2.70Q359.40 2.40 358.50 2.02Q357.60 1.65 356.85 1.35Q356.10 1.05 355.95 1.05L355.95 1.05L355.65 1.05Q355.50 1.05 355.27 0.97Q355.05 0.90 354.90 0.90L354.90 0.90L354 0.90Q354 2.55 354.82 3.52Q355.65 4.50 356.93 5.25Q358.20 6 359.55 6.60Q360.90 7.20 361.95 7.95L361.95 7.95Q364.50 6.60 365.32 3.67Q366.15 0.75 366.15-1.95L366.15-1.95Q366.15-4.65 365.25-7.13Q364.35-9.60 363-12L363-12ZM418.05-10.95L418.05-12L417-12L417-10.95L418.05-10.95ZM384-10.95L379.05-10.95Q379.20-10.05 380.02-9.97Q380.85-9.90 381.45-9.90L381.45-9.90Q382.20-9.90 382.95-9.97Q383.70-10.05 384-10.95L384-10.95ZM346.50-0.90L346.50-0.90Q348.15-0.90 349.13-1.95Q350.10-3 350.10-4.50L350.10-4.50Q350.10-5.85 349.43-7.42Q348.75-9 347.10-9L347.10-9Q346.05-9 345.45-8.85Q344.85-8.70 343.95-7.95L343.95-7.95L343.80-5.55Q343.80-4.20 344.18-2.55Q344.55-0.90 346.50-0.90Z"/>
    </svg>
        