<svg width="192" height="192" version="1.1" xmlns="http://www.w3.org/2000/svg" xmlns:xlink="http://www.w3.org/1999/xlink"><path d="M131.90-13.63L131.90-13.63L132.48-14.21L150.14-8.06Q162.43-2.69 165.50 7.30L165.50 7.30Q165.89 8.45 166.08 9.79L166.08 9.79Q166.85 14.21 165.70 16.70L165.70 16.70Q164.54 19.01 161.86 19.01L161.86 19.01Q160.90 19.01 160.32 18.43L160.32 18.43L132.67-8.45Q131.90-9.79 131.90-13.63ZM70.66-15.36L70.66-15.36Q70.66-18.43 71.23-19.39L71.23-19.39Q76.22-19.20 86.59-13.06L86.59-13.06Q97.15-6.91 97.92 1.73L97.92 1.73Q98.50 7.30 94.66 8.45L94.66 8.45Q91.97 9.22 88.70 6.72L88.70 6.72Q84.67 3.46 71.23-14.78L71.23-14.78Q70.85-15.17 70.66-15.36ZM155.14 61.06L155.14 61.06Q136.70 76.99 107.52 74.11L107.52 74.11Q98.88 73.15 90.24 70.66L90.24 70.66Q72.38 65.28 63.36 48.38L63.36 48.38Q60.10 41.86 56.45 31.10L56.45 31.10Q52.42 18.82 52.03 17.28L52.03 17.28L52.03 16.51L52.03 14.98Q52.42 14.21 52.99 14.21L52.99 14.21Q58.56 13.63 61.82 22.85L61.82 22.85L64.13 30.91Q72.19 53.57 89.28 57.98L89.28 57.98Q102.14 61.44 114.82 60.29L114.82 60.29Q126.53 59.14 127.68 52.99L127.68 52.99Q127.10 50.11 122.30 35.52L122.30 35.52Q121.15 32.06 120.58 29.18L120.58 29.18L122.11 29.18L141.89 47.42Q142.46 47.81 142.85 48.19L142.85 48.19L152.64 55.49Q152.83 55.87 153.22 56.26L153.22 56.26Q155.14 58.75 155.14 61.06ZM20.16 57.98L20.16 57.98Q13.25 51.26 18.82 38.59L18.82 38.59L24.58 25.54L24.96 24.77L28.03 14.40Q29.57 10.37 31.10 10.37L31.10 10.37Q35.71 10.37 35.33 23.81L35.33 23.81Q35.14 40.51 28.80 51.46L28.80 51.46Q24.96 57.98 20.16 57.98Z" stroke="#000" fill="black" /></svg>