<svg width="192" height="192" version="1.1" xmlns="http://www.w3.org/2000/svg" xmlns:xlink="http://www.w3.org/1999/xlink"><path d="M86.59 17.47L86.59 17.47L88.51 25.54Q88.51 28.42 86.40 30.14L86.40 30.14Q81.02 30.14 72.96 23.42L72.96 23.42Q69.12 20.16 67.39 19.01L67.39 19.01Q61.06 14.98 59.71 11.90L59.71 11.90Q59.71 9.22 60.29 8.45L60.29 8.45L74.30 10.37Q82.56 12.29 86.59 17.47ZM160.70 150.34L160.70 150.34Q153.98 153.79 116.35 153.79L116.35 153.79Q104.06 148.80 88.13 131.33L88.13 131.33L77.95 120.00Q58.56 140.93 20.35 144.19L20.35 144.19L16.51 143.62Q16.13 143.23 15.94 142.66L15.94 142.66L30.34 137.66Q59.14 127.49 71.62 112.70L71.62 112.70Q54.72 93.50 45.89 86.40L45.89 86.40Q42.43 83.52 38.98 81.22L38.98 81.22L38.78 79.68Q44.35 77.57 51.46 81.79L51.46 81.79Q53.57 83.14 55.30 84.86L55.30 84.86L75.65 105.60Q86.21 81.41 82.94 63.17L82.94 63.17Q82.56 61.06 82.18 59.33L82.18 59.33Q77.76 58.75 47.42 65.28L47.42 65.28Q34.94 67.97 30.53 68.35L30.53 68.35Q26.30 68.74 20.74 64.13L20.74 64.13Q19.20 62.78 18.05 61.44L18.05 61.44Q18.05 59.71 19.78 59.33L19.78 59.33Q22.27 58.75 37.82 57.22L37.82 57.22Q38.98 57.22 39.94 57.02L39.94 57.02Q74.11 52.80 108.67 44.35L108.67 44.35L120.38 41.28Q120.96 41.09 121.34 41.09L121.34 41.09Q127.87 40.32 135.17 45.50L135.17 45.50Q136.90 46.46 138.62 48.00L138.62 48.00Q138.62 49.92 135.94 51.26L135.94 51.26L93.12 57.22L90.43 57.79Q94.85 60.29 99.26 64.90L99.26 64.90Q100.03 66.82 98.11 70.66L98.11 70.66L97.54 72.38L95.81 82.18Q92.35 98.69 83.71 112.70L83.71 112.70Q99.07 128.64 127.49 138.24L127.49 138.24L156.86 147.26Q160.13 148.22 160.70 150.34Z" stroke="#000" fill="black" /></svg>