<svg width="192" height="192" version="1.1" xmlns="http://www.w3.org/2000/svg" xmlns:xlink="http://www.w3.org/1999/xlink"><path d="M170.50 124.58L172.22 126.31L171.26 127.27Q144.96 129.19 138.43 125.16L138.43 125.16Q123.65 105.58 111.94 85.42L111.94 85.42L111.36 157.99Q111.36 163.18 105.79 168.55L105.79 168.55Q102.91 168.55 100.99 163.37L100.99 163.37Q99.84 160.49 99.26 159.53L99.26 159.53Q97.73 152.81 100.22 139.94L100.22 139.94Q101.18 135.53 101.57 132.84L101.57 132.84Q103.49 117.67 103.49 86.76L103.49 86.76Q88.70 113.83 64.13 132.07L64.13 132.07Q62.40 132.07 62.21 130.73L62.21 130.73Q65.66 125.54 81.41 105.19L81.41 105.19Q96.19 86.38 101.38 72.55L101.38 72.55L87.74 74.09Q81.98 73.90 77.76 69.29L77.76 69.29L79.49 67.75L103.68 63.72L104.26 62.95Q103.68 57.77 104.06 42.02L104.06 42.02Q104.06 28.39 99.07 20.90L99.07 20.90Q96.77 17.64 96.77 15.14L96.77 15.14Q100.61 11.11 110.59 17.83L110.59 17.83Q114.82 20.71 116.35 23.02L116.35 23.02Q116.74 23.59 116.74 25.13L116.74 25.13Q116.74 25.90 115.01 30.50L115.01 30.50L114.62 31.66Q112.32 40.68 112.32 60.46L112.32 60.46Q115.20 60.07 126.14 56.23L126.14 56.23Q137.66 52.20 144 56.62L144 56.62Q144.77 57.19 145.54 57.96L145.54 57.96Q145.73 59.11 145.34 59.88L145.34 59.88Q144.96 60.84 144.19 61.03L144.19 61.03L112.32 69.67Q111.94 71.02 111.94 77.54L111.94 77.54Q129.60 96.55 130.75 97.70L130.75 97.70Q142.08 109.03 152.64 114.79L152.64 114.79L170.50 124.58ZM72.77 67.75L72.77 67.75Q72.58 70.82 52.61 75.24L52.61 75.24Q51.84 77.35 52.03 88.68L52.03 88.68L62.21 91.75Q67.78 94.06 68.35 97.90L68.35 97.90Q68.93 102.31 67.01 102.70L67.01 102.70L63.74 102.70L63.55 102.70Q59.14 100.20 52.03 93.48L52.03 93.48Q51.07 109.61 50.11 154.15L50.11 154.15Q47.62 159.91 45.50 161.45L45.50 161.45Q43.39 161.45 42.05 159.53L42.05 159.53Q36.67 151.66 39.55 139.18L39.55 139.18L41.86 128.42Q43.39 120.55 43.78 97.32L43.78 97.32Q43.78 94.25 43.78 91.94L43.78 91.94Q34.56 111.14 11.71 133.80L11.71 133.80Q7.49 138.02 4.42 138.02L4.42 138.02L4.42 135.91Q29.57 103.27 39.55 81.19L39.55 81.19Q40.51 79.46 41.09 77.74L41.09 77.74L26.30 80.04Q16.70 81.00 10.94 76.78L10.94 76.78Q10.94 75.05 13.63 74.66L13.63 74.66L40.70 69.86Q42.62 69.48 44.35 69.10L44.35 69.10L44.74 46.25Q44.16 32.42 38.98 24.74L38.98 24.74L38.78 21.86Q42.82 18.41 49.15 23.40L49.15 23.40Q53.76 26.86 54.91 27.43L54.91 27.43Q57.02 29.74 57.22 31.66L57.22 31.66Q52.99 50.86 52.61 61.80L52.61 61.80Q52.61 63.91 52.61 66.22L52.61 66.22L63.36 64.10Q69.50 63.53 72.77 67.75Z" stroke="#000" fill="black" /></svg>